<svg data-v-423bf9ae="" xmlns="http://www.w3.org/2000/svg" viewBox="0 0 614.969478536306 60" class="font"><!----><!----><!----><g data-v-423bf9ae="" id="649464cf-b7d5-4316-96ef-cfa6e500b751" fill="white" transform="matrix(6.109979823280842,0,0,6.109979823280842,-0.000009501307317805185,-11.670061748471603)"><path d="M0.15 9.37L0.15 1.93L2.34 1.93L2.34 1.93Q2.70 3.25 3.83 7.21L3.83 7.21L4.69 7.21L4.69 7.21Q4.72 7.21 4.97 6.26L4.97 6.26L4.97 6.26Q5.52 4.40 6.19 1.93L6.19 1.93L8.22 1.93L8.22 8.29L8.33 8.29L8.33 9.45L7.72 9.45L7.72 9.66L8.33 9.66L8.33 11.73L6.61 11.73L6.61 10.97L6.82 10.97L6.82 8.62L6.46 8.62L6.46 7.44L6.24 7.44L6.23 7.51L6.04 7.51L6.04 9.18L5.45 9.18L5.45 9.96L4.94 9.96L4.94 11.29L3.73 11.29L3.73 10.44L2.98 10.44L2.98 9.28L2.54 9.28L2.54 8.07L2.28 8.07L2.28 8.07Q2.27 7.97 2.12 7.44L2.12 7.44L3.86 7.44L3.81 7.21L2.07 7.21L2.12 7.44L1.89 7.44L1.89 8.96L2.00 8.96L2.00 10.64L1.57 10.64L1.57 10.94L2.00 10.94L2.00 11.38L0.44 11.38L0.44 9.37L0.15 9.37ZM1.89 6.51L1.87 6.51L1.87 6.63L1.87 6.63Q1.87 6.78 1.89 7.21L1.89 7.21L2.05 7.21L2.05 7.21Q1.89 6.55 1.89 6.51L1.89 6.51ZM6.47 6.53L6.46 6.53L6.31 7.21L6.46 7.21L6.46 7.21Q6.47 6.79 6.47 6.60L6.47 6.60L6.47 6.53ZM1.87 7.21L1.33 7.21L1.33 7.44L1.87 7.44L1.87 7.21ZM6.30 7.21L4.72 7.21L4.67 7.44L6.23 7.44L6.23 7.44Q6.30 7.26 6.30 7.21L6.30 7.21ZM7.67 7.21L6.47 7.21L6.47 7.44L7.67 7.44L7.67 7.21ZM4.63 7.44L3.89 7.44L3.89 7.44Q4.01 7.97 4.04 7.97L4.04 7.97L4.24 7.97L4.24 8.85L4.55 8.85L4.55 7.49L4.63 7.49L4.63 7.44ZM8.33 9.66L8.33 9.45L9.32 9.45L9.32 9.66L8.33 9.66ZM8.43 10.12L8.43 9.74L8.51 9.74L8.51 9.89L8.65 9.89L8.65 9.78L8.65 9.78Q8.65 9.74 8.68 9.74L8.68 9.74L8.71 9.74L8.71 9.74Q8.74 9.75 8.74 9.78L8.74 9.78L8.74 10.09L8.74 10.09Q8.74 10.12 8.71 10.12L8.71 10.12L8.65 10.12L8.65 9.97L8.51 9.97L8.51 10.12L8.43 10.12ZM8.43 10.62L8.43 10.24L8.66 10.24L8.66 10.24Q8.70 10.25 8.70 10.27L8.70 10.27L8.70 10.32L8.51 10.32L8.51 10.39L8.66 10.39L8.66 10.47L8.51 10.47L8.51 10.62L8.43 10.62ZM8.45 10.74L8.45 10.74L8.68 10.74L8.68 10.74Q8.71 10.74 8.71 10.77L8.71 10.77L8.71 10.80L8.53 11.03L8.71 11.03L8.71 11.12L8.43 11.12L8.43 11.12Q8.39 11.12 8.39 11.07L8.39 11.07L8.39 11.07Q8.45 10.99 8.58 10.82L8.58 10.82L8.42 10.82L8.42 10.77L8.42 10.77Q8.42 10.74 8.45 10.74ZM8.43 11.53L8.43 11.23L8.51 11.23L8.51 11.45L8.53 11.53L8.61 11.53L8.61 11.53Q8.65 11.53 8.65 11.50L8.65 11.50L8.65 11.27L8.65 11.27Q8.65 11.23 8.68 11.23L8.68 11.23L8.71 11.23L8.71 11.23Q8.74 11.24 8.74 11.27L8.74 11.27L8.74 11.46L8.74 11.46Q8.74 11.61 8.59 11.61L8.59 11.61L8.57 11.61L8.57 11.61Q8.47 11.61 8.43 11.53L8.43 11.53ZM0 11.61L0 11.46L1.76 11.46L1.76 11.61L0 11.61ZM9.27 7.49L9.27 1.96L12.62 1.96L12.62 1.96Q14.30 1.96 14.79 3.14L14.79 3.14L14.79 3.14Q15.00 3.75 15.00 4.53L15.00 4.53L15.00 4.94L15.00 4.94Q15.00 6.36 14.38 7.11L14.38 7.11L13.67 7.11L13.67 7.47L14.76 7.47L14.76 9.81L14.12 9.81L14.12 10.17L15.09 10.17L15.09 11.55L13.05 11.55L13.05 9.34L12.26 9.34L12.26 7.92L10.90 7.92L10.90 10.34L11.19 10.34L11.19 11.73L9.30 11.73L9.30 11.73Q9.27 11.73 9.27 11.70L9.27 11.70L9.27 7.77L10.11 7.77L10.11 7.49L9.27 7.49ZM12.00 3.55L11.19 3.55L11.19 6.31L11.66 6.31L11.66 6.31Q12.70 6.31 12.87 6.11L12.87 6.11L12.87 6.11Q13.04 6.00 13.13 5.67L13.13 5.67L13.86 5.67L13.86 5.32L13.20 5.32L13.20 5.35L13.20 5.35Q13.15 5.67 13.12 5.67L13.12 5.67L12.18 5.67L12.18 5.32L13.17 5.32L13.17 5.32Q13.20 5.32 13.20 5.29L13.20 5.29L13.20 5.29Q13.21 4.87 13.21 4.81L13.21 4.81L13.21 4.81Q13.21 3.90 12.90 3.69L12.90 3.69L12.90 3.69Q12.65 3.55 12.00 3.55L12.00 3.55ZM15.89 1.93L15.89 1.93L17.74 1.93L17.74 1.93Q17.77 1.94 17.77 1.97L17.77 1.97L17.77 6.73L17.77 6.73Q17.77 6.76 17.74 6.76L17.74 6.76L17.52 6.76L17.52 11.70L17.52 11.70Q17.52 11.73 17.49 11.73L17.49 11.73L15.89 11.73L15.89 11.73Q15.86 11.73 15.86 11.70L15.86 11.70L15.86 6.64L15.37 6.64L15.37 6.64Q15.33 6.64 15.33 6.61L15.33 6.61L15.33 6.40L15.33 6.40Q15.34 6.36 15.37 6.36L15.37 6.36L15.86 6.36L15.86 1.97L15.86 1.97Q15.87 1.93 15.89 1.93ZM16.82 6.36L15.87 6.36L15.87 6.64L16.82 6.64L16.82 6.36ZM18.55 6.62L18.55 1.96L21.53 1.96L21.53 1.96Q23.39 1.96 24.08 3.22L24.08 3.22L24.08 3.22Q24.68 4.20 24.68 6.49L24.68 6.49L24.98 6.49L24.98 8.83L22.08 8.83L22.08 8.56L22.99 8.56L22.99 6.49L22.72 6.49L22.72 5.63L22.72 5.63Q22.72 4.19 22.08 3.79L22.08 3.79L22.08 3.79Q21.70 3.58 20.87 3.58L20.87 3.58L20.47 3.58L20.47 6.44L20.74 6.44L20.74 8.83L18.79 8.83L18.79 6.62L18.55 6.62ZM17.68 9.13L17.68 8.83L18.56 8.83L18.56 9.13L20.74 9.13L20.74 9.78L22.08 9.78L22.08 9.13L24.98 9.13L24.98 9.78L22.99 9.78L22.99 11.52L20.74 11.52L20.74 11.73L18.58 11.73L18.58 11.73Q18.55 11.73 18.55 11.70L18.55 11.70L18.55 9.13L17.68 9.13ZM20.74 9.13L20.74 8.83L22.08 8.83L22.08 9.13L20.74 9.13ZM24.98 9.13L24.98 8.83L26.90 8.83L26.90 9.13L24.98 9.13ZM25.18 6.33L25.18 1.94L27.06 1.94L27.06 7.12L26.17 7.12L26.17 7.39L27.06 7.39L27.06 8.36L27.06 8.36Q27.06 9.69 27.54 9.91L27.54 9.91L27.54 9.91Q27.77 10.06 28.13 10.06L28.13 10.06L28.71 10.06L28.71 8.34L29.22 8.34L29.22 1.94L31.10 1.94L31.10 7.96L30.42 7.96L30.42 8.39L31.10 8.39L31.10 8.39Q31.08 8.61 31.08 8.72L31.08 8.72L31.08 10.64L30.10 10.64L30.10 11.73L25.72 11.73L25.72 10.38L25.32 10.38L25.32 6.33L25.18 6.33ZM27.06 7.39L27.06 7.12L28.13 7.12L28.13 7.39L27.06 7.39ZM31.48 8.85L31.48 1.91L33.43 1.91L33.43 5.94L33.04 5.94L33.04 10.10L35.95 10.10L35.95 10.97L35.38 10.97L35.38 11.17L35.95 11.17L35.95 11.73L34.07 11.73L34.07 11.58L31.49 11.58L31.49 11.58Q31.48 11.42 31.48 11.33L31.48 11.33L31.48 9.14L31.97 9.14L31.97 8.85L31.48 8.85ZM35.95 11.17L35.95 10.97L36.66 10.97L36.66 11.17L35.95 11.17ZM43.98 1.93L43.98 1.93L43.98 1.93Q46.03 1.93 46.55 3.22L46.55 3.22L46.55 3.22Q46.71 3.53 46.71 3.63L46.71 3.63L45.85 3.63L45.85 3.89L46.78 3.89L46.78 3.88L46.78 3.88Q46.78 3.81 46.71 3.63L46.71 3.63L48.29 3.63L48.29 3.89L46.79 3.89L46.79 3.91L46.79 3.91Q46.91 4.46 46.96 5.09L46.96 5.09L46.96 5.09Q46.96 5.13 45.16 5.22L45.16 5.22L45.16 5.21L45.16 5.21Q45.16 3.58 44.04 3.58L44.04 3.58L43.84 3.58L43.84 3.58Q43.00 3.58 42.82 4.29L42.82 4.29L42.82 4.29Q42.68 4.89 42.68 5.87L42.68 5.87L42.68 7.21L42.66 7.40L42.03 7.40L42.03 7.71L42.66 7.71L42.66 10.08L45.29 10.08L45.29 7.62L46.81 7.62L46.81 10.08L45.96 10.08L45.96 11.60L44.21 11.60L44.21 11.73L42.84 11.73L42.84 11.60L41.45 11.60L41.45 10.84L42.38 10.84L42.38 10.51L40.99 10.51L40.99 9.39L40.40 9.39L40.40 8.00L40.71 8.00L40.71 8.00Q40.69 7.16 40.69 6.66L40.69 6.66L40.69 6.66Q40.69 4.42 40.91 3.84L40.91 3.84L40.91 3.84Q41.12 3.17 41.57 2.69L41.57 2.69L41.57 2.69Q42.38 1.93 43.98 1.93ZM47.48 6.64L47.48 1.96L49.42 1.96L49.42 5.85L51.37 5.85L51.37 1.96L53.01 1.96L53.01 7.51L52.34 7.51L52.34 7.75L53.01 7.75L53.01 11.73L51.40 11.73L51.40 11.73Q51.37 11.73 51.37 11.70L51.37 11.70L51.37 7.48L49.42 7.48L49.42 11.70L49.42 11.70Q49.42 11.73 49.38 11.73L49.38 11.73L47.76 11.73L47.76 6.64L47.48 6.64ZM53.01 7.75L53.01 7.51L53.88 7.51L53.88 7.75L53.01 7.75ZM55.26 7.57L56.94 1.96L58.59 1.96L58.59 1.96Q58.63 2.10 60.19 7.29L60.19 7.29L60.49 7.29L60.49 10.51L59.81 10.51L59.81 10.76L60.49 10.76L60.49 11.45L58.67 11.45L58.67 9.47L56.45 9.47L56.45 10.32L55.54 10.32L55.54 11.73L53.89 11.73L53.89 11.63L54.02 11.63L54.02 10.32L54.70 10.32L54.70 7.57L55.26 7.57ZM57.75 4.71L57.72 4.71L57.72 4.72L57.72 4.72Q57.50 5.89 56.90 8.40L56.90 8.40L58.43 8.40L58.43 7.29L58.30 7.29L58.30 7.29Q57.75 4.92 57.75 4.71L57.75 4.71ZM53.42 7.57L53.42 7.28L54.70 7.28L54.70 7.57L53.42 7.57ZM58.67 11.73L58.67 11.57L60.87 11.57L60.87 11.73L58.67 11.73ZM60.30 3.57L60.30 1.93L66.04 1.93L66.04 3.57L64.14 3.57L64.14 10.34L65.00 10.34L65.00 10.54L64.14 10.54L64.14 11.29L63.63 11.29L63.63 11.55L63.99 11.55L63.99 11.73L62.25 11.73L62.25 11.73Q62.21 11.73 62.21 11.70L62.21 11.70L62.21 3.57L60.30 3.57ZM64.13 10.34L63.46 10.34L63.46 10.54L64.13 10.54L64.13 10.34ZM65.62 6.33L65.62 1.94L67.50 1.94L67.50 7.12L66.62 7.12L66.62 7.39L67.50 7.39L67.50 8.36L67.50 8.36Q67.50 9.69 67.98 9.91L67.98 9.91L67.98 9.91Q68.22 10.06 68.57 10.06L68.57 10.06L69.15 10.06L69.15 8.34L69.67 8.34L69.67 1.94L71.54 1.94L71.54 7.96L70.86 7.96L70.86 8.39L71.54 8.39L71.54 8.39Q71.52 8.61 71.52 8.72L71.52 8.72L71.52 10.64L70.54 10.64L70.54 11.73L66.17 11.73L66.17 10.38L65.76 10.38L65.76 6.33L65.62 6.33ZM67.50 7.39L67.50 7.12L68.57 7.12L68.57 7.39L67.50 7.39ZM71.92 7.49L71.92 1.96L75.27 1.96L75.27 1.96Q76.95 1.96 77.44 3.14L77.44 3.14L77.44 3.14Q77.66 3.75 77.66 4.53L77.66 4.53L77.66 4.94L77.66 4.94Q77.66 6.36 77.03 7.11L77.03 7.11L76.32 7.11L76.32 7.47L77.41 7.47L77.41 9.81L76.77 9.81L76.77 10.17L77.74 10.17L77.74 11.55L75.70 11.55L75.70 9.34L74.92 9.34L74.92 7.92L73.55 7.92L73.55 10.34L73.84 10.34L73.84 11.73L71.96 11.73L71.96 11.73Q71.92 11.73 71.92 11.70L71.92 11.70L71.92 7.77L72.76 7.77L72.76 7.49L71.92 7.49ZM74.65 3.55L73.84 3.55L73.84 6.31L74.31 6.31L74.31 6.31Q75.35 6.31 75.52 6.11L75.52 6.11L75.52 6.11Q75.69 6.00 75.78 5.67L75.78 5.67L76.51 5.67L76.51 5.32L75.85 5.32L75.85 5.35L75.85 5.35Q75.80 5.67 75.77 5.67L75.77 5.67L74.83 5.67L74.83 5.32L75.82 5.32L75.82 5.32Q75.85 5.32 75.85 5.29L75.85 5.29L75.85 5.29Q75.87 4.87 75.87 4.81L75.87 4.81L75.87 4.81Q75.87 3.90 75.55 3.69L75.55 3.69L75.55 3.69Q75.30 3.55 74.65 3.55L74.65 3.55ZM77.98 1.93L77.98 1.93L80.06 1.93L80.06 1.93Q80.08 2.10 80.85 5.75L80.85 5.75L81.28 5.75L81.28 6.13L80.76 6.13L80.76 5.75L80.03 5.75L80.03 6.13L80.76 6.13L80.76 7.88L80.99 7.88L80.99 8.79L81.57 8.79L81.57 7.45L81.79 7.45L81.79 6.13L82.20 6.13L82.20 5.75L81.87 5.75L81.87 5.75Q82.64 2.10 82.66 1.93L82.66 1.93L84.74 1.93L84.74 1.93Q83.61 6.84 83.61 6.93L83.61 6.93L83.61 8.63L83.04 8.63L83.04 8.97L83.47 8.97L83.47 9.97L82.69 9.97L82.69 11.73L80.26 11.73L80.26 11.73Q80.23 11.73 80.06 10.98L80.06 10.98L80.69 10.98L80.69 10.57L79.99 10.57L79.99 10.57Q79.95 10.57 79.80 9.78L79.80 9.78L79.80 9.78Q79.72 9.54 77.98 1.93ZM85.54 6.80L85.54 2.00L90.34 2.00L90.34 3.60L90.34 3.60Q90.34 3.63 90.30 3.63L90.30 3.63L87.46 3.63L87.46 5.74L90.01 5.74L90.01 5.76L90.01 5.76Q90.01 5.84 89.98 6.79L89.98 6.79L89.98 6.79Q89.96 6.79 89.96 6.80L89.96 6.80L90.08 6.80L90.08 7.29L87.87 7.29L87.87 9.29L87.27 9.29L87.27 9.49L87.87 9.49L87.87 10.10L90.37 10.10L90.37 10.32L90.17 10.32L90.17 11.52L87.18 11.52L87.18 11.73L85.76 11.73L85.76 8.24L85.54 8.24L85.54 7.01L83.99 7.01L83.99 6.80L85.54 6.80ZM86.36 6.80L85.56 6.80L85.56 7.01L86.36 7.01L86.36 6.80ZM91.59 6.62L91.59 1.96L94.57 1.96L94.57 1.96Q96.43 1.96 97.13 3.22L97.13 3.22L97.13 3.22Q97.73 4.20 97.73 6.49L97.73 6.49L98.02 6.49L98.02 8.83L95.12 8.83L95.12 8.56L96.03 8.56L96.03 6.49L95.76 6.49L95.76 5.63L95.76 5.63Q95.76 4.19 95.12 3.79L95.12 3.79L95.12 3.79Q94.75 3.58 93.91 3.58L93.91 3.58L93.51 3.58L93.51 6.44L93.78 6.44L93.78 8.83L91.83 8.83L91.83 6.62L91.59 6.62ZM90.72 9.13L90.72 8.83L91.60 8.83L91.60 9.13L93.78 9.13L93.78 9.78L95.12 9.78L95.12 9.13L98.02 9.13L98.02 9.78L96.03 9.78L96.03 11.52L93.78 11.52L93.78 11.73L91.62 11.73L91.62 11.73Q91.59 11.73 91.59 11.70L91.59 11.70L91.59 9.13L90.72 9.13ZM93.78 9.13L93.78 8.83L95.12 8.83L95.12 9.13L93.78 9.13ZM98.02 9.13L98.02 8.83L99.94 8.83L99.94 9.13L98.02 9.13ZM98.78 1.93L98.78 1.93L100.63 1.93L100.63 1.93Q100.65 1.94 100.65 1.97L100.65 1.97L100.65 6.73L100.65 6.73Q100.65 6.76 100.63 6.76L100.63 6.76L100.41 6.76L100.41 11.70L100.41 11.70Q100.41 11.73 100.37 11.73L100.37 11.73L98.78 11.73L98.78 11.73Q98.75 11.73 98.75 11.70L98.75 11.70L98.75 6.64L98.25 6.64L98.25 6.64Q98.22 6.64 98.22 6.61L98.22 6.61L98.22 6.40L98.22 6.40Q98.23 6.36 98.25 6.36L98.25 6.36L98.75 6.36L98.75 1.97L98.75 1.97Q98.75 1.93 98.78 1.93ZM99.70 6.36L98.76 6.36L98.76 6.64L99.70 6.64L99.70 6.36Z"></path></g><!----><!----></svg>